inDegrees=no
num_controls=7
num_derivatives=13
num_iterations=102
num_multipliers=7
num_parameters=0
num_slacks=7
num_states=26
objective=5.994528
objective_accelerations=0.373807
objective_balance=0.045934
objective_effort=0.417722
objective_height=5.090155
objective_ligament=0.066910
solver_duration=899.555459
status=Solve_Succeeded
success=true
DataType=double
version=3
OpenSimVersion=4.4-2022-07-23-0e9fedc
endheader
time	/jointset/ground_pelvis/pelvis_tilt/value	/jointset/ground_pelvis/pelvis_tx/value	/jointset/ground_pelvis/pelvis_ty/value	/jointset/hip_r/hip_flexion_r/value	/jointset/hip_r/hip_adduction_r/value	/jointset/hip_r/hip_rotation_r/value	/jointset/back/lumbar_extension/value	/jointset/patellofemoral_r/patellar_flexion_r/value	/jointset/knee_r/knee_flexion_r/value	/jointset/knee_r/knee_adduction_r/value	/jointset/knee_r/knee_rotation_r/value	/jointset/ankle_r/ankle_angle_r/value	/jointset/subtalar_r/subtalar_angle_r/value	/jointset/ground_pelvis/pelvis_tilt/speed	/jointset/ground_pelvis/pelvis_tx/speed	/jointset/ground_pelvis/pelvis_ty/speed	/jointset/hip_r/hip_flexion_r/speed	/jointset/hip_r/hip_adduction_r/speed	/jointset/hip_r/hip_rotation_r/speed	/jointset/back/lumbar_extension/speed	/jointset/patellofemoral_r/patellar_flexion_r/speed	/jointset/knee_r/knee_flexion_r/speed	/jointset/knee_r/knee_adduction_r/speed	/jointset/knee_r/knee_rotation_r/speed	/jointset/ankle_r/ankle_angle_r/speed	/jointset/subtalar_r/subtalar_angle_r/speed	/forceset/tau_hip_flexion_r	/forceset/tau_hip_adduction_r	/forceset/tau_hip_rotation_r	/forceset/tau_knee_flexion_r	/forceset/tau_ankle_angle_r	/forceset/tau_subtalar_angle_r	/forceset/tau_lumbar_extension	lambda_cid13_p0	lambda_cid14_p0	lambda_cid14_p1	lambda_cid14_p2	lambda_cid14_p3	lambda_cid14_p4	lambda_cid14_p5	/jointset/ground_pelvis/pelvis_tilt/accel	/jointset/ground_pelvis/pelvis_tx/accel	/jointset/ground_pelvis/pelvis_ty/accel	/jointset/hip_r/hip_flexion_r/accel	/jointset/hip_r/hip_adduction_r/accel	/jointset/hip_r/hip_rotation_r/accel	/jointset/back/lumbar_extension/accel	/jointset/patellofemoral_r/patellar_flexion_r/accel	/jointset/knee_r/knee_flexion_r/accel	/jointset/knee_r/knee_adduction_r/accel	/jointset/knee_r/knee_rotation_r/accel	/jointset/ankle_r/ankle_angle_r/accel	/jointset/subtalar_r/subtalar_angle_r/accel	gamma_cid13_p0	gamma_cid14_p0	gamma_cid14_p1	gamma_cid14_p2	gamma_cid14_p3	gamma_cid14_p4	gamma_cid14_p5
1	-0.1677226097932865	0.04724366008988991	0.7633678330164523	1.041713333315726	-0.2351692338124848	-0.08149401893010802	-0.4362231392416652	1.117112494954886	1.117112494953601	-0.02952515478961051	0.1745157802501979	0.4363115486974661	0.1060037514005677	0.0002204549544514938	0.005341280766790408	0.01283141733072252	-0.03849847950093085	0.001998534434597248	-0.01031361374653212	0.009818328176355959	-0.04691836716116755	-0.04691836716117454	0.0004405367599603752	-0.0001170597964774958	-0.009859669130252706	-0.0002145584453788053	-0.1905489895008521	0.03226135881359418	0.0133692903641612	-0.4307802672175411	-0.05329528624760589	0.004472246585098263	0.2395790222166674	-4.931919573885811	-64.16974500044779	-9.538330068572668	2.260452779059637	19.75763246290871	-768.8593948061061	53.46549229067901	0.8921215804270004	0.03826536009125523	1.182164512185287	-3.76753037994046	0.1199556183862732	-0.5064890421952642	0.4815877905618803	-4.247793080751665	-4.24779308075159	0.5498155393039942	-0.0160577818527516	-1.558906546097894	-0.395465159421182	1.346852289950126e-09	-2.177744011455124e-09	1.434311923532787e-09	9.313884684802273e-09	6.244027576883272e-09	-5.343183655043673e-09	5.482060981446245e-10
1.01	-0.1676768318499104	0.0472990911060453	0.7635551123660091	1.041141033288529	-0.2351434226075169	-0.08162203726603581	-0.4360990049756925	1.116431070308452	1.116431070309583	-0.02949259897396727	0.1745139234886675	0.4361350532902593	0.1059815470513333	0.008891976136522138	0.005757455990023325	0.02462295177184861	-0.07594157131483116	0.003158318276084084	-0.01529799270410233	0.01512895866942384	-0.08938414210902655	-0.08938414210902762	0.00607873539223115	-0.0002414059085995785	-0.02543592837851269	-0.004233265520363194	-0.1910565276522662	0.03224176249442209	0.01336716970957633	-0.4303269429227156	-0.05371339162510616	0.004557334925381537	0.2401297328475169	-4.96595141410138	-64.30898111927272	-9.505338523234578	2.231871979224283	19.70150951713849	-769.1548796165208	53.5118442111642	0.8481945084814277	0.04517452407165446	1.177421249956999	-3.729704824316545	0.1131844079308396	-0.4956021865907906	0.5738657245708981	-4.248607113245569	-4.248607113245279	0.5720394620037447	-0.00868656399489072	-1.556463695158953	-0.4061131119881642	2.061346493966464e-09	-9.13858521777887e-10	1.046825979605712e-08	1.485868145652606e-08	4.480797946715656e-09	-7.670122798813083e-09	9.209033051750086e-09
1.02	-0.1675456332704339	0.04735906005855734	0.7638602617279605	1.040194901094809	-0.2351061746360215	-0.08180013736433663	-0.4359181513955362	1.115324460430234	1.115324460433799	-0.02940341768474414	0.1745112105582952	0.4358028996743373	0.1059189477052451	0.01730458217397557	0.006248868038123954	0.03640541980886327	-0.1132649128167726	0.004285887753739208	-0.02032996622383926	0.02116219099822584	-0.1319554135145785	-0.1319554135145727	0.01176563149716016	-0.0002882935448169984	-0.04099131086553566	-0.008293557813413741	-0.1915640658032572	0.03222216617492917	0.01336504905511825	-0.4298736186278133	-0.05413149700271717	0.004642423265074432	0.2406804434787876	-5.02153341693636	-64.45830651046288	-9.468451885622713	2.196203263428562	19.66131087518292	-769.6166189578148	53.58561403489486	0.840338551503657	0.05331272506450003	1.180351231363001	-3.743580317548453	0.1135127456198293	-0.5160079546288775	0.6261081577084504	-4.268892372290409	-4.268892372290149	0.5595550338356375	-0.0005660866714461456	-1.554731193851053	-0.4037822030347659	2.710382615559419e-09	-4.524693105324885e-10	8.6324689475669e-09	2.359242026749168e-08	4.805608617295388e-09	-8.951944583575414e-09	6.577903300428673e-09
1.03	-0.1673316135211938	0.04742433569867354	0.7642831241670053	1.038876241093524	-0.2350577903692194	-0.08202868790024405	-0.4356733250594195	1.113791751552164	1.113791751553534	-0.0292571113099221	0.1745082958726283	0.4353153549827485	0.1058156081564639	0.02545261383649696	0.006820486028463624	0.04815861338406886	-0.1504335498389355	0.005388057244773232	-0.02537656040127343	0.02792961987099261	-0.1745896023308935	-0.1745896023308892	0.01750511100307249	-0.0002948080368401065	-0.05650832937372571	-0.01237373854750877	-0.191835127487623	0.0321343114102433	0.01337120476848945	-0.4291940568159167	-0.05430457264877538	0.004687341530444238	0.241031024691935	-5.099045570860481	-64.50552736907572	-9.429960303948713	2.158938741743693	19.55236068344002	-769.6657524091856	53.62568114691068	0.795023403262023	0.06122127395988258	1.171533175805115	-3.698473999901524	0.1081384548380611	-0.4984448443603731	0.7210417981202871	-4.261168846376698	-4.261168846377633	0.5825651105230343	-0.0007121566317436507	-1.548793134141203	-0.4100390112390801	3.35875079753581e-09	7.311631778870386e-13	6.685762397841773e-09	3.235869930334755e-08	5.151725821556227e-09	-1.022310190549073e-08	3.83154950109774e-09
1.04	-0.1670375158694032	0.04749575450627923	0.7648232644928503	1.037186901001	-0.2349984705267913	-0.08230759631686244	-0.4353570281253208	1.11183260344386	1.11183260344312	-0.02905312599988563	0.1745053124368643	0.4346729189151073	0.1056714861997993	0.03332016268445185	0.007477501536021823	0.05986099716817041	-0.187400931075126	0.006473002895585062	-0.03040154238114084	0.03545631058621062	-0.2172432595501837	-0.217243259550182	0.02330141857118665	-0.0003020435754190391	-0.07196958607544911	-0.01645003938730042	-0.1921061891715553	0.03204645664546314	0.01337736048254509	-0.4285144950039211	-0.05447764829487507	0.004732259795623753	0.2413816059054881	-5.198978811038436	-64.56284009168367	-9.387498166881629	2.114487558606736	19.45830976898294	-769.8818338253149	53.69350009455218	0.7842419885905422	0.07039222850784517	1.170189273142194	-3.703329160353717	0.1100679775752993	-0.5116855151157896	0.7779605261986243	-4.272786052885623	-4.272786052885599	0.5709206462759737	-0.0007102959822714843	-1.543578832558377	-0.4030062241744402	4.385726689508348e-09	1.004047630899157e-09	7.588513570968144e-09	4.119744651149792e-08	4.811327085930725e-09	-1.192779496897597e-08	3.912470298693108e-09
1.05	-0.1666660230791218	0.04757416686635583	0.7654801346262403	1.035128842918364	-0.2349284020901494	-0.08263668694053165	-0.434961890872535	1.109446893123564	1.109446893122913	-0.02879092057060719	0.1745022868045764	0.4338761489884656	0.1054866094106325	0.04094122801120118	0.00821888457802019	0.07150022052802173	-0.2241791679115377	0.007536857834249741	-0.03541578581522097	0.04367882360224924	-0.2598945318652742	-0.2598945318652738	0.02914650598055555	-0.0003015199436504187	-0.08737500822047325	-0.02052490143082682	-0.1920819693118481	0.03185478104705212	0.0133905134907968	-0.4276369057749964	-0.05443283486941548	0.00475395777680589	0.2414600743595675	-5.321922843755929	-64.52699357872206	-9.334438139140603	2.063354058261412	19.33212680123934	-769.6819854764443	53.75298975220132	0.7454650745719674	0.07809934202981296	1.158864773511718	-3.660342245985813	0.1039788662569567	-0.4961691541313708	0.8605492339799952	-4.260658019675986	-4.260658019676741	0.5923292907404073	0.0006783113558317452	-1.537615884711718	-0.4096562282113133	5.424534072418264e-09	2.024555223433265e-09	8.580310297933608e-09	5.00384583500325e-08	4.449474727183778e-09	-1.364603602438527e-08	4.081743427442407e-09
1.06	-0.1662194343816148	0.04766041065684696	0.7662530121744563	1.032703948207161	-0.2348478081813658	-0.08301589507775614	-0.4344812979806493	1.106634798040313	1.106634798039832	-0.0284700589668894	0.1744993153323459	0.4329256064445263	0.1052609979942625	0.04833934413212542	0.009043787618927464	0.0830624801326227	-0.2607682567759981	0.008578097342755116	-0.04042504511242459	0.05254743840530095	-0.3025202121345655	-0.3025202121345658	0.0350326534888783	-0.0002912115679061507	-0.102724109534992	-0.02459696482513786	-0.1920577494523762	0.03166310544859657	0.01340366649931687	-0.4267593165460654	-0.05438802144393379	0.004775655757915226	0.2415385428134292	-5.468593933959681	-64.50119638916762	-9.277351328272703	2.00496923074597	19.21962299678939	-769.6489178252043	53.84060157040548	0.7396521474257923	0.08709622828924454	1.154796522092126	-3.665499565963159	0.1055448915433598	-0.5106886877407438	0.9071808836012696	-4.267667643725954	-4.267667643725808	0.5791326660666863	0.001246652813151601	-1.532314666457966	-0.4024464943316921	6.302924620929414e-09	2.629747390930483e-09	7.013360389758465e-09	5.889242278589879e-08	4.644090965884165e-09	-1.506794182487818e-08	1.619317127070336e-09
